<svg width="143" height="148" viewBox="0 0 143 148" fill="none" xmlns="http://www.w3.org/2000/svg">
<path fill-rule="evenodd" clip-rule="evenodd" d="M8.17754 19.5862L17.1325 31.5801C17.1325 31.5801 25.2887 25.4735 31.56 22.5848C37.4809 19.8576 41.5823 18.3296 47.9775 17.0875C58.8504 14.9757 65.4964 14.8047 76.335 17.0875C84.0356 18.7093 88.6223 19.809 95.24 24.0839C101.134 27.8915 103.908 30.9937 108.175 36.5775C110.581 39.7264 113.372 43.948 115.14 48.0718C118.314 55.4756 119.618 62.5643 119.618 62.5643C119.618 62.5643 106.874 51.5312 97.23 47.0722C89.1327 43.3283 84.1559 41.8994 75.34 40.5755C65.9247 39.1616 60.3487 38.9776 50.9625 40.5755C41.6332 42.1637 36.2716 43.3184 28.0775 48.0719C19.0235 53.3243 14.2545 58.0158 8.17754 66.5622C3.20254 73.5589 0.715044 85.5525 0.715044 85.5525C-0.255804 91.5235 -0.220731 95.0681 0.715044 101.045C2.22918 110.715 4.77075 116.237 10.665 124.033C15.6617 130.641 19.5109 133.74 26.585 138.026C32.7024 141.732 36.6392 143.022 43.5 145.022C46.7587 145.972 48.6056 146.492 51.9575 147.021C58.8671 148.111 63.415 148.31 70.365 147.521C77.2963 146.734 81.2016 145.86 87.7775 143.523C94.0853 141.282 97.853 139.605 103.5 136C108.807 132.612 111.302 129.876 115.176 125.627C115.639 125.118 116.122 124.588 116.633 124.033C120.401 119.931 126.583 111.539 126.583 111.539V119.035C126.583 121.573 126.399 123.621 126.085 126.532C125.785 129.31 125.436 130.966 124.593 134.028C123.707 137.242 122.105 141.524 122.105 141.524H139.518C139.518 141.524 141.294 137.026 142.005 132.029C142.716 127.032 143 124.033 143 119.035C143 114.937 142.005 107.042 142.005 107.042C142.005 107.042 141.064 100.886 140.015 97.0469C138.811 92.6412 136.035 86.0525 136.035 86.0525V70.0604C136.035 63.9978 135.807 59.9969 134.542 54.0688C133.05 47.0722 132.055 44.0739 128.075 36.5775C125.933 32.5427 124.128 30.0062 121.11 26.5829C117.739 22.7589 116.026 20.9002 112.155 17.5875C107.889 13.9365 105.099 11.853 100.215 9.0918C95.8985 6.65118 94.4084 5.83344 89.7675 4.09435C85.934 2.6578 82.4304 2.14744 78.6149 1.59165C77.5521 1.43683 76.4651 1.27849 75.34 1.09563C67.2848 -0.213629 62.555 -0.310034 54.445 0.596102C49.1428 1.18852 46.1998 1.84273 41.0125 3.09478C36.605 4.15862 33.9701 5.18502 29.956 6.74866C29.669 6.86048 29.3749 6.97505 29.0725 7.09257C20.2164 10.5354 8.17754 19.5862 8.17754 19.5862ZM64.8925 132.029C107.18 130.03 118.623 96.5472 118.623 90.0505C118.623 84.5533 100.713 56.0678 64.8925 56.0678C38.2406 56.0678 16.635 73.0723 16.635 94.0485C16.635 115.025 38.2406 132.029 64.8925 132.029Z" fill="#39B54A"/>
</svg>
